<?xml version="1.0" encoding="UTF-8"?>
<svg width="24px" height="24px" viewBox="0 0 24 24" version="1.1" xmlns="http://www.w3.org/2000/svg" xmlns:xlink="http://www.w3.org/1999/xlink">
    <title>切片</title>
    <g id="问答页面" stroke="none" stroke-width="1" fill="none" fill-rule="evenodd">
        <g id="问答页面web" transform="translate(-30.000000, -348.000000)">
            <g id="nav_left" transform="translate(-2.000000, 0.000000)">
                <g id="Icon/24/Home" transform="translate(32.000000, 348.000000)">
                    <rect id="矩形" fill="#D8D8D8" opacity="0" x="0" y="0" width="24" height="24"></rect>
                    <path d="M5.5,4 L5.5,7 L7,7 L7,19 L5.5,19 L5.5,22 L3.5,22 L3.5,19 L2,19 L2,7 L3.5,7 L3.5,4 L5.5,4 Z M20.5,4 L20.5,7 L22,7 L22,19 L20.5,19 L20.5,22 L18.5,22 L18.5,19 L17,19 L17,7 L18.5,7 L18.5,4 L20.5,4 Z M13,2 L13,5 L14.5,5 L14.5,17 L13,17 L13,20 L11,20 L11,17 L9.5,17 L9.5,5 L11,5 L11,2 L13,2 Z" id="形状结合" fill="#FFFFFF"></path>
                </g>
            </g>
        </g>
    </g>
</svg>