<?xml version="1.0" standalone="no"?><!DOCTYPE svg PUBLIC "-//W3C//DTD SVG 1.1//EN" "http://www.w3.org/Graphics/SVG/1.1/DTD/svg11.dtd"><svg t="1666236261492" class="icon" viewBox="0 0 1024 1024" version="1.1" xmlns="http://www.w3.org/2000/svg" p-id="5651" xmlns:xlink="http://www.w3.org/1999/xlink" width="32" height="32"><path d="M953.81333334 304.74666667l-72.10666666 191.36L762.02666667 453.33333334l72.10666666-191.36c11.09333333-29.33333333 49.6-53.65333333 82.56-41.81333334 32.96 11.73333333 46.18666667 60.69333333 37.12000001 84.58666667zM737.49333334 472.85333334c-4.37333333 11.41333333-15.57333333 18.56-27.41333333 18.56-3.41333333 0-6.82666667-0.53333333-10.13333334-1.81333334-15.14666667-5.44-22.82666667-21.86666667-17.28-36.58666666l76.16000001-199.89333334c5.65333333-14.72 22.4-22.29333333 37.54666666-16.74666666 15.14666667 5.44 22.82666667 21.76 17.28 36.58666666l-76.16 199.89333334z m-43.30666667-344.42666667H134.82666668v677.01333333H577.60000001v60.48H134.82666668c-34.24 0-62.18666667-27.09333333-62.18666667-60.48V128.42666667c0-33.38666667 27.84-60.48 62.18666667-60.48h559.25333332c34.24 0 62.18666667 27.09333333 62.18666667 60.48v73.06666667h-62.18666667v-73.06666667h0.10666667z m-90.66666666 432.42666667H386.02666667c-17.17333333 0-31.04-13.54666667-31.04-30.29333334s13.86666667-30.29333333 31.04-30.29333333h217.49333334c17.17333333 0 31.04 13.54666667 31.03999999 30.29333333s-13.86666667 30.29333333-31.03999999 30.29333334z m31.03999999-120.96c0 16.74666667-13.86666667 30.29333333-31.03999999 30.29333333H386.02666667c-17.17333333 0-31.04-13.54666667-31.04-30.29333333s13.86666667-30.29333333 31.04-30.29333334h217.49333334c17.17333333 0 31.04 13.54666667 31.03999999 30.29333334zM290.24000001 222.4h248.53333333c17.17333333 0 31.04 13.54666667 31.04 30.29333334s-13.86666667 30.29333333-31.04 30.29333333h-248.53333333c-17.17333333 0-31.04-13.54666667-31.04000001-30.29333333s13.86666667-30.29333333 31.04000001-30.29333334zM230.61333334 409.6h31.04c17.17333333 0 31.04 13.54666667 31.03999999 30.29333334s-13.86666667 30.29333333-31.03999999 30.29333333h-31.04c-17.17333333 0-31.04-13.54666667-31.04000001-30.29333333s13.86666667-30.29333333 31.04000001-30.29333334z m0 181.54666667h31.04c17.17333333 0 31.04 13.54666667 31.03999999 30.29333333s-13.86666667 30.29333333-31.03999999 30.29333334h-31.04c-17.17333333 0-31.04-13.54666667-31.04000001-30.29333334s13.86666667-30.29333333 31.04000001-30.29333333z m0-90.77333333h31.04c17.17333333 0 31.04 13.54666667 31.03999999 30.29333333s-13.86666667 30.29333333-31.03999999 30.29333333h-31.04c-17.17333333 0-31.04-13.54666667-31.04000001-30.29333333s13.86666667-30.29333333 31.04000001-30.29333333z m124.26666667 120.96c0-16.74666667 13.86666667-30.29333333 31.03999999-30.29333334h217.49333334c17.17333333 0 31.04 13.54666667 31.03999999 30.29333334s-13.86666667 30.29333333-31.03999999 30.29333333H386.02666667c-17.17333333 0-31.14666667-13.54666667-31.14666666-30.29333333z m285.54666666 295.04c-17.92-33.81333333-4.48-132.05333333 3.30666667-152.85333334l99.52-264 119.78666666 42.77333334L763.52000001 806.4c-9.38666667 24.85333333-59.94666667 102.82666667-95.14666667 118.61333334l-8.42666666 22.4c-2.13333333 5.76-7.78666667 9.28-13.76000001 9.28-1.70666667 0-3.41333333-0.32-5.01333334-0.85333334-7.57333333-2.66666667-11.52-10.88-8.64-18.24l7.89333334-21.22666666z" fill="#696969" p-id="5652"></path></svg>